<?xml version="1.0" standalone="no"?><!DOCTYPE svg PUBLIC "-//W3C//DTD SVG 1.1//EN" "http://www.w3.org/Graphics/SVG/1.1/DTD/svg11.dtd"><svg t="1735569811197" class="icon" viewBox="0 0 1170 1024" version="1.1" xmlns="http://www.w3.org/2000/svg" p-id="15074" xmlns:xlink="http://www.w3.org/1999/xlink" width="228.515625" height="200"><path d="M613.485714 959.771429c-101.828571 0-181.142857-66.285714-238.857143-124-70.171429-70.171429-133.257143-149.142857-126.628571-251.885715l-10.971429-10.971428c-3.428571 0.457143-6.857143 0.685714-10.4 0.685714-7.2 0-14.514286-1.028571-21.371428-3.085714-1.828571 22.4-3.085714 50.628571-3.085714 86.171428 0 33.714286 10.857143 63.428571 17.714285 72.685715 1.6 0.342857 3.428571 0.571429 4.8 0.914285 8.571429 1.485714 19.2 3.428571 29.828572 8.228572 19.314286 8.914286 32 24.914286 35.657143 44.571428 15.885714 8.228571 27.542857 18.971429 34.971428 32.228572 10.971429 19.657143 11.542857 42.285714 1.485714 63.657143-10.971429 23.314286-35.885714 39.657143-76.228571 49.942857-27.2 6.857143-59.885714 10.742857-91.885714 10.742857-22.057143 0-54.285714-1.942857-83.314286-10.857143-25.028571-7.771429-57.485714-24.114286-69.828571-58.285714-14.514286-40 4.685714-72 21.714285-100.114286 9.6-15.885714 20.457143-34.057143 30.171429-58.4 21.828571-54.628571 13.714286-104.571429 5.828571-153.028571-4.457143-27.314286-8.685714-53.142857-7.542857-79.2 1.485714-34.4 12.342857-62.628571 33.028572-86.285715 44.685714-51.085714 122.857143-57.485714 148.571428-59.542857l2.171429-0.114286L486.742857 86.057143c29.257143-29.142857 76.571429-29.142857 105.828572 0L616 109.485714c16.571429 16.571429 24.457143 40 21.142857 63.314286l10.971429 10.971429c4.685714-0.342857 9.485714-0.457143 14.171428-0.457143 97.257143 0 171.657143 61.142857 237.714286 127.085714 53.371429 53.371429 115.542857 126.514286 123.2 219.542857 7.542857 91.885714-38.514286 186.171429-140.685714 288.342857-95.2 95.2-183.2 141.485714-269.028572 141.485715z" fill="#25467A" p-id="15075"></path><path d="M124.342857 425.142857c31.885714-36.457143 95.2-41.6 116.342857-43.428571 43.314286-3.542857 85.371429 6.628571 97.371429 9.6 10.857143 2.742857 19.657143 5.485714 25.828571 7.542857-19.771429-1.714286-127.314286-5.6-180.342857 61.6-11.542857 14.628571-29.714286 58.171429-29.714286 196.228571 0 47.885714 17.942857 104.571429 44.457143 116.342857 15.085714 6.742857 43.428571 3.428571 44.571429 20.571429s-16 20.571429-16 20.571429 73.028571 8 55.885714 44.457142-212.114286 52.571429-232.8-4.571428c-11.085714-30.971429 24-55.2 51.542857-124.228572 52.8-132.228571-36.571429-237.028571 22.857143-304.685714z" fill="#FFBC00" p-id="15076"></path><path d="M866.057143 344.457143c-71.542857-71.542857-143.314286-126.171429-235.542857-110.285714l-68.685715-68.685715c-6.971429-6.971429-18.285714-6.971429-25.371428 0L229.6 472.342857c-6.971429 6.971429-6.971429 18.285714 0 25.371429l68.685714 68.685714c-15.771429 92.228571 38.857143 164 110.285715 235.542857 116.685714 116.685714 241.942857 180.571429 440-17.485714s134.171429-323.428571 17.485714-440z" fill="#FEF8E2" p-id="15077"></path><path d="M184.114286 456.457143L520.571429 120c10.514286-10.514286 27.542857-10.514286 37.942857 0l23.314285 23.314286c10.514286 10.514286 10.514286 27.542857 0 37.942857L245.485714 517.828571c-10.514286 10.514286-27.542857 10.514286-37.942857 0l-23.314286-23.314285c-10.628571-10.514286-10.628571-27.542857-0.114285-38.057143z" fill="#FEF8E2" p-id="15078"></path><path d="M210.285714 460.342857l314.285715-314.285714c8-8 21.028571-8 29.028571 0l2.4 2.4c8 8 8 21.028571 0 29.028571l-314.285714 314.285715c-8 8-21.028571 8-29.028572 0l-2.4-2.4c-8-8-8-21.028571 0-29.028572z" fill="#FADD60" p-id="15079"></path><path d="M677.257143 256c-18.285714-1.714286-36.685714-0.228571-54.4 4.228571l-52.571429-52.571428c-4.114286-4.114286-10.857143-4.114286-14.971428 0l-283.428572 283.428571c-4.114286 4.114286-4.114286 10.857143 0 14.971429l52.571429 52.571428c-4.457143 17.828571-5.828571 36.228571-4.228572 54.4 6.285714 64.8 54.4 120.914286 105.371429 171.885715 66.285714 66.285714 120.114286 97.828571 174.514286 102.285714 69.485714 5.714286 145.257143-33.485714 231.542857-119.885714s125.6-162.057143 119.885714-231.657143c-4.457143-54.4-36-108.114286-102.285714-174.514286-51.085714-50.742857-107.2-98.857143-172-105.142857z" fill="#FDEFBA" p-id="15080"></path><path d="M831.657143 767.428571C745.257143 853.828571 669.485714 893.028571 600 887.314286c-54.285714-4.457143-108.114286-36-174.514286-102.285715-50.971429-50.971429-98.971429-107.085714-105.371428-171.885714-1.6-18.285714-0.228571-36.685714 4.228571-54.4l-52.571428-52.571428c-4.114286-4.114286-4.114286-10.857143 0-14.971429l92.228571-92.228571c44.8 14.742857 99.885714 34.514286 149.942857 45.485714s248 30.4 397.485714-10.057143c24.571429 35.657143 37.257143 68.571429 40 101.6 5.714286 69.371429-33.485714 145.142857-119.771428 231.428571z" fill="#FFBC00" p-id="15081"></path><path d="M619.657143 747.771429c-35.314286 0-64-28.685714-64-64 0-7.085714 5.714286-12.8 12.8-12.8 7.085714 0 12.8 5.714286 12.8 12.8 0 21.257143 17.257143 38.4 38.4 38.4s38.4-17.142857 38.4-38.4c0-7.085714 5.714286-12.8 12.8-12.8s12.8 5.714286 12.8 12.8c0 35.314286-28.571429 64-64 64zM453.257143 581.371429c0 21.257143 17.257143 38.4 38.4 38.4s38.4-17.257143 38.4-38.4-17.142857-38.4-38.4-38.4c-21.142857 0-38.285714 17.142857-38.4 38.4zM709.257143 581.371429c0 21.257143 17.142857 38.4 38.4 38.4s38.4-17.142857 38.4-38.4-17.142857-38.4-38.4-38.4c-21.142857 0-38.4 17.257143-38.4 38.4z" fill="#25467A" p-id="15082"></path><path d="M440.457143 645.371429h-51.2c-14.171429 0-25.6 11.428571-25.6 25.6 0 14.171429 11.428571 25.6 25.6 25.6h51.2c14.171429 0 25.6-11.428571 25.6-25.6s-11.428571-25.6-25.6-25.6c0.114286 0 0.114286 0 0 0z m409.6 0H798.857143c-14.171429 0-25.6 11.428571-25.6 25.6s11.428571 25.6 25.6 25.6h51.2c14.171429 0 25.6-11.428571 25.6-25.6 0-14.057143-11.428571-25.6-25.6-25.6z" fill="#FCE68D" p-id="15083"></path><path d="M112.685714 486.742857c-5.028571-2.171429-1.942857-37.6 20.685715-59.771428 16.685714-16.342857 40.8-22.628571 43.542857-18.514286 2.057143 3.085714-8.571429 10.742857-28.228572 33.714286-26.4 30.628571-32.457143 46.057143-36 44.571428zM78.285714 803.2c-4.114286-1.6-24.685714 19.542857-19.542857 40.571429 4.685714 19.2 28.571429 29.371429 31.885714 26.057142 2.742857-2.628571-9.6-12.8-13.028571-34.057142-3.2-19.314286 3.542857-31.428571 0.685714-32.571429z" fill="#FDEFBA" p-id="15084"></path><path d="M139.542857 551.428571c-6.742857 0.114286 10.171429 91.885714-19.657143 200.457143-12.571429 45.714286-26.971429 71.085714-12.685714 89.028572 20.571429 26.057143 81.6 12 81.942857 6.971428 0.228571-4.228571-42.057143-1.6-55.657143-26.514285-6.171429-11.314286-3.771429-23.428571-2.514285-30.057143 23.542857-121.714286 19.314286-185.828571 15.085714-215.314286-0.685714-5.485714-3.428571-24.685714-6.514286-24.571429z" fill="#F29312" p-id="15085"></path><path d="M211.314286 784.114286c0.685714-2.057143 9.142857-1.142857 14.4 0.342857 3.2 0.914286 8.457143 2.4 9.142857 5.942857 0.342857 1.485714-0.114286 3.085714-1.257143 4.228571-4.8 4-23.314286-7.2-22.285714-10.514285zM234.514286 823.085714c1.6-3.657143 16.8-0.228571 25.942857 3.542857 5.485714 2.285714 14.742857 6.057143 15.314286 12.571429 0.228571 2.514286-0.8 5.828571-3.085715 7.314286-9.6 6.514286-40.8-17.6-38.171428-23.428572z" fill="#FDEFBA" p-id="15086"></path></svg>