<?xml version="1.0" standalone="no"?><!DOCTYPE svg PUBLIC "-//W3C//DTD SVG 1.1//EN" "http://www.w3.org/Graphics/SVG/1.1/DTD/svg11.dtd"><svg t="1735569746305" class="icon" viewBox="0 0 1024 1024" version="1.1" xmlns="http://www.w3.org/2000/svg" p-id="8137" xmlns:xlink="http://www.w3.org/1999/xlink" width="200" height="200"><path d="M567.978667 648.362667v17.066666c-17.834667 5.717333-36.778667 8.789333-56.490667 8.789334-18.944 0-37.205333-2.901333-54.442667-8.192v-17.066667c17.237333 5.290667 35.498667 8.192 54.442667 8.192 19.712 0 38.656-3.072 56.490667-8.789333z" fill="#E0AFB0" p-id="8138"></path><path d="M699.989333 386.645333c-1.024 0-1.962667 0.256-2.986666 0.341334v-24.917334a184.029867 184.029867 0 0 0-54.016-130.474666 183.995733 183.995733 0 0 0-130.474667-54.016c-80.042667 0-148.138667 51.029333-173.653333 122.282666-6.997333 19.456-10.752 40.362667-10.752 62.208v24.917334c-1.194667-0.085333-2.389333-0.341333-3.584-0.341334-21.248 0-38.4 17.152-38.4 38.4s17.152 38.4 38.4 38.4c1.194667 0 2.389333-0.256 3.584-0.341333v9.557333c0 82.944 54.698667 153.088 129.962666 176.298667 17.237333 5.290667 35.498667 8.192 54.442667 8.192 19.712 0 38.656-3.072 56.490667-8.789333 74.24-23.893333 128-93.525333 128-175.701334v-9.557333c1.024 0.085333 1.962667 0.341333 2.986666 0.341333a38.4 38.4 0 0 0 0-76.8zM567.978667 697.429333v-32.085333c-17.834667 5.717333-36.778667 8.789333-56.490667 8.789333-18.944 0-37.205333-2.901333-54.442667-8.192v31.488c0 21.418667-10.069333 41.557333-27.136 54.528l-102.826666 77.568c-13.056 9.898667-6.058667 30.72 10.24 30.72h350.378666c16.384 0 23.381333-20.821333 10.24-30.72l-102.826666-77.568c-17.066667-12.885333-27.136-33.109333-27.136-54.528z" fill="#FEC6C7" p-id="8139"></path><path d="M695.808 192.768c-8.106667-13.482667-37.888-59.392-71.338667-63.744 0 0 13.141333 21.162667 9.045334 26.197333 0 0-27.221333-37.290667-51.456-39.338666 0 0 18.176 25.173333 11.093333 30.208 0 0-41.216-46.336-80.64-51.456-39.338667 5.034667-80.64 51.456-80.64 51.456-7.082667-5.034667 11.093333-30.208 11.093333-30.208-24.234667 2.048-51.456 39.338667-51.456 39.338666-4.010667-5.034667 9.045333-26.197333 9.045334-26.197333-32.938667 4.181333-62.208 48.554667-70.912 62.976-32.085333 2.133333-37.461333 42.752-33.621334 81.92 4.096 41.813333 30.890667 123.136 30.890667 123.136s20.138667-97.365333 31.232-116.138667c1.536-2.645333 2.986667-6.229333 4.181333-10.410666l150.186667 23.893333 148.821333-23.722667c1.536 3.754667 3.072 6.997333 4.352 9.386667 10.325333 19.2 26.88 117.248 26.88 117.248s29.866667-80.213333 35.498667-121.856c5.376-39.68 1.28-77.568-32.256-82.688z" fill="#3B5178" p-id="8140"></path><path d="M556.885333 397.738667a4.181333 4.181333 0 0 1-2.730666-1.024 4.215467 4.215467 0 0 1-0.512-5.973334c0.597333-0.682667 14.762667-17.408 34.048-17.834666 11.093333-0.426667 21.077333 4.693333 30.208 14.677333 1.621333 1.706667 1.450667 4.437333-0.256 6.058667-1.706667 1.621333-4.437333 1.450667-6.058667-0.256-7.424-8.021333-15.36-12.032-23.637333-11.861334-15.36 0.341333-27.562667 14.592-27.733334 14.762667-0.853333 0.938667-2.048 1.450667-3.328 1.450667zM466.090667 397.738667c-1.194667 0-2.389333-0.512-3.242667-1.536-0.085333-0.170667-12.373333-14.421333-27.733333-14.762667-8.192-0.170667-16.298667 3.84-23.637334 11.861333-1.621333 1.706667-4.266667 1.877333-6.058666 0.256-1.706667-1.621333-1.877333-4.266667-0.256-6.058666 9.130667-9.984 19.285333-15.018667 30.208-14.677334 19.285333 0.426667 33.450667 17.066667 34.048 17.834667 1.536 1.792 1.28 4.522667-0.512 5.973333-0.853333 0.768-1.877333 1.109333-2.816 1.109334z" p-id="8141"></path><path d="M436.906667 437.077333m-13.226667 0a13.226667 13.226667 0 1 0 26.453333 0 13.226667 13.226667 0 1 0-26.453333 0Z" p-id="8142"></path><path d="M584.192 437.077333m-13.226667 0a13.226667 13.226667 0 1 0 26.453334 0 13.226667 13.226667 0 1 0-26.453334 0Z" p-id="8143"></path><path d="M512 499.456c-2.389333 0-4.266667-1.877333-4.266667-4.266667v-33.109333c0-2.389333 1.877333-4.266667 4.266667-4.266667s4.266667 1.877333 4.266667 4.266667v33.109333c0 2.304-1.877333 4.266667-4.266667 4.266667zM512.170667 580.608c-22.357333 0-37.973333-16.469333-38.144-16.725333-1.621333-1.706667-1.450667-4.437333 0.256-6.058667 1.706667-1.621333 4.437333-1.536 6.058666 0.256 1.194667 1.28 29.525333 30.976 63.829334-0.256 1.706667-1.621333 4.437333-1.450667 6.058666 0.256 1.621333 1.706667 1.450667 4.437333-0.256 6.058667-13.738667 12.288-26.624 16.469333-37.802666 16.469333z" p-id="8144"></path><path d="M768 916.821333H256c0-49.493333 20.394667-94.293333 53.333333-126.72 27.306667-26.88 63.232-45.226667 103.338667-50.688 5.461333-0.768 11.008-1.28 16.64-1.536 13.909333 28.757333 48.042667 48.64 82.517333 48.64 34.645333 0 64.597333-19.968 78.421334-48.896 5.717333 0 7.082667 0.256 12.629333 0.853334 43.349333 3.925333 82.432 22.954667 111.616 51.626666 33.109333 32.426667 53.504 77.226667 53.504 126.72z" fill="#31BBCC" p-id="8145"></path><path d="M683.008 902.741333c0 4.693333 0.085333 9.386667 0.256 14.08H340.650667c0.170667-4.608 0.256-9.301333 0.256-14.08 0-48.810667-9.898667-92.928-25.770667-124.330666 28.074667-25.429333 64-40.789333 103.168-40.789334h5.12c9.472 44.288 45.568 77.226667 88.576 77.226667 43.008 0 79.018667-32.938667 88.490667-77.226667h5.12c39.168 0 75.093333 15.274667 103.168 40.789334-15.872 31.402667-25.770667 75.52-25.770667 124.330666z" fill="#F7CB5B" p-id="8146"></path></svg>